<svg xmlns="http://www.w3.org/2000/svg" version="1.1" viewBox="-5.0 -10.0 110.0 135.0">
 <path d="m15.34 89.91c-10.883-10.52-10.602-28.324 0.10547-39.031l42.242-42.242c8.0273-8.0273 21.434-8.2969 29.324-0.13281 7.6719 7.9336 7.5898 20.625-0.24219 28.457l-37.992 37.992c-4.9805 4.9805-13.027 5.6484-18.449 1.1602-6.2227-5.1523-6.5469-14.434-0.96484-20.016l26.312-26.312c1.3203-1.3203 3.4648-1.3203 4.7852 0 1.3203 1.3203 1.3203 3.4648 0 4.7852l-26.148 26.145c-2.4297 2.4297-2.8594 6.3438-0.75781 9.0625 2.543 3.293 7.3125 3.5156 10.156 0.67188l37.992-37.992c4.9805-4.9805 5.6484-13.027 1.1602-18.449-5.1523-6.2227-14.434-6.5469-20.016-0.96484l-42.676 42.676c-8.0273 8.0273-8.2969 21.434-0.13281 29.324 7.9336 7.6719 20.625 7.5898 28.457-0.24219l31.098-31.098c1.3203-1.3203 3.4648-1.3203 4.7852 0 1.3203 1.3203 1.3203 3.4648 0 4.7852l-31.098 31.098c-10.441 10.441-27.363 10.551-37.941 0.32422z"/>
</svg>