<svg xmlns="http://www.w3.org/2000/svg" xmlns:xlink="http://www.w3.org/1999/xlink" xmlns:sketch="http://www.bohemiancoding.com/sketch/ns" viewBox="0 0 96 118.75" version="1.1" x="0px" y="0px"><g stroke="none" stroke-width="1" fill="none" fill-rule="evenodd" sketch:type="MSPage"><g sketch:type="MSLayerGroup" transform="translate(-3660.000000, -369.000000)" fill="#ffffff"><path d="M3711.39514,412.846154 L3711.39514,398.22507 C3711.39514,395.811036 3709.43208,393.846154 3707.01053,393.846154 C3704.5939,393.846154 3702.62591,395.806661 3702.62591,398.22507 L3702.62591,412.846154 L3688.00483,412.846154 C3685.59079,412.846154 3683.62591,414.809213 3683.62591,417.230769 C3683.62591,419.647398 3685.58642,421.615385 3688.00483,421.615385 L3702.62591,421.615385 L3702.62591,436.236469 C3702.62591,438.650503 3704.58897,440.615385 3707.01053,440.615385 C3709.42716,440.615385 3711.39514,438.654877 3711.39514,436.236469 L3711.39514,421.615385 L3726.01623,421.615385 C3728.43026,421.615385 3730.39514,419.652325 3730.39514,417.230769 C3730.39514,414.81414 3728.43463,412.846154 3726.01623,412.846154 L3711.39514,412.846154 Z M3707.7413,464 C3733.97482,464 3755.2413,442.733526 3755.2413,416.5 C3755.2413,390.266474 3733.97482,369 3707.7413,369 C3681.50777,369 3660.2413,390.266474 3660.2413,416.5 C3660.2413,442.733526 3681.50777,464 3707.7413,464 Z M3707.7413,455.230769 C3729.13171,455.230769 3746.47207,437.890413 3746.47207,416.5 C3746.47207,395.109587 3729.13171,377.769231 3707.7413,377.769231 C3686.35088,377.769231 3669.01053,395.109587 3669.01053,416.5 C3669.01053,437.890413 3686.35088,455.230769 3707.7413,455.230769 Z" sketch:type="MSShapeGroup"/></g></g></svg>